<?xml version="1.0" encoding="UTF-8"?>
<svg width="230px" height="36px" viewBox="0 0 230 36" version="1.1" xmlns="http://www.w3.org/2000/svg" xmlns:xlink="http://www.w3.org/1999/xlink">
    <!-- Generator: Sketch 64 (93537) - https://sketch.com -->
    <title>Logo</title>
    <desc>Created with Sketch.</desc>
    <defs>
        <linearGradient x1="0%" y1="0%" x2="100%" y2="0%" id="linearGradient-1">
            <stop stop-color="#000A68" offset="0%"></stop>
            <stop stop-color="#00C4EE" offset="100%"></stop>
        </linearGradient>
    </defs>
    <g id="Simly-Request" stroke="none" stroke-width="1" fill="none" fill-rule="evenodd">
        <g id="Simply-Request-Project-Desktop" transform="translate(-332.000000, -284.000000)" fill-rule="nonzero">
            <g id="Logo" transform="translate(332.000000, 284.000000)">
                <g id="da3ca19c-77a6-4c64-921f-79124319ef81" transform="translate(49.000000, 6.000000)" fill="#000000">
                    <path d="M0.695176206,15.1782857 L0.695176206,15.1782857 L2.22812886,14.2571429 L2.22812886,14.2571429 C3.30951407,16.2411429 4.55726624,17.2331429 5.97138536,17.2331429 L5.97138536,17.2331429 L5.97138536,17.2331429 C6.57743641,17.2331429 7.1478374,17.0914286 7.68258832,16.808 L7.68258832,16.808 L7.68258832,16.808 C8.21733925,16.5245714 8.62731496,16.1466667 8.91251546,15.6742857 L8.91251546,15.6742857 L8.91251546,15.6742857 C9.1858326,15.2137143 9.32249117,14.7118095 9.32249117,14.1685714 L9.32249117,14.1685714 L9.32249117,14.1685714 C9.32249117,13.5780952 9.12047415,12.9935238 8.71644012,12.4148571 L8.71644012,12.4148571 L8.71644012,12.4148571 C8.14603913,11.6118095 7.10624566,10.7969524 5.59705971,9.97028571 L5.59705971,9.97028571 L5.59705971,9.97028571 C4.08787376,8.83657143 3.15503047,8.01580952 2.79852985,7.508 L2.79852985,7.508 L2.79852985,7.508 C2.15682874,6.66952381 1.83597818,5.75428571 1.83597818,4.76228571 L1.83597818,4.76228571 L1.83597818,4.76228571 C1.83597818,3.97104762 2.02611185,3.25657143 2.40637917,2.61885714 L2.40637917,2.61885714 L2.40637917,2.61885714 C2.77476315,1.98114286 3.3035724,1.47333333 3.99280692,1.09542857 L3.99280692,1.09542857 L3.99280692,1.09542857 C4.68204145,0.729333333 5.42475107,0.546285714 6.22093579,0.546285714 L6.22093579,0.546285714 L6.22093579,0.546285714 C7.06465392,0.546285714 7.86083863,0.758857143 8.60948993,1.184 L8.60948993,1.184 L8.60948993,1.184 C9.34625788,1.59733333 10.1305592,2.36495238 10.962394,3.48685714 L10.962394,3.48685714 L9.48291645,4.60285714 L9.48291645,4.60285714 C8.80556527,3.70533333 8.2292226,3.11485714 7.75388845,2.83142857 L7.75388845,2.83142857 L7.75388845,2.83142857 C7.26667094,2.548 6.74380336,2.40628571 6.18528573,2.40628571 L6.18528573,2.40628571 L6.18528573,2.40628571 C5.46040114,2.40628571 4.86623344,2.6247619 4.40278264,3.06171429 L4.40278264,3.06171429 L4.40278264,3.06171429 C3.93933183,3.49866667 3.70760643,4.036 3.70760643,4.67371429 L3.70760643,4.67371429 L3.70760643,4.67371429 C3.70760643,5.06342857 3.78484823,5.4472381 3.93933183,5.82514286 L3.93933183,5.82514286 L3.93933183,5.82514286 C4.10569879,6.1912381 4.40872431,6.58685714 4.84840841,7.012 L4.84840841,7.012 L4.84840841,7.012 C5.08607549,7.24819048 5.86443517,7.85047619 7.18348746,8.81885714 L7.18348746,8.81885714 L7.18348746,8.81885714 C8.75209018,9.96438095 9.82159203,10.9091429 10.391993,11.6531429 L10.391993,11.6531429 L10.391993,11.6531429 C10.9742774,12.4089524 11.2654195,13.235619 11.2654195,14.1331429 L11.2654195,14.1331429 L11.2654195,14.1331429 C11.2654195,15.4321905 10.7722603,16.5659048 9.78594197,17.5342857 L9.78594197,17.5342857 L9.78594197,17.5342857 C8.78774024,18.4908571 7.57563814,18.9691429 6.14963567,18.9691429 L6.14963567,18.9691429 L6.14963567,18.9691429 C5.04448375,18.9691429 4.04628202,18.6798095 3.15503047,18.1011429 L3.15503047,18.1011429 L3.15503047,18.1011429 C2.26377893,17.5224762 1.4438275,16.5481905 0.695176206,15.1782857 Z M15.0265011,0.0857142857 L15.0265011,0.0857142857 L15.0265011,0.0857142857 C15.4186517,0.0857142857 15.7513857,0.227428571 16.0247028,0.510857143 L16.0247028,0.510857143 L16.0247028,0.510857143 C16.3099033,0.78247619 16.4525035,1.11314286 16.4525035,1.50285714 L16.4525035,1.50285714 L16.4525035,1.50285714 C16.4525035,1.89257143 16.3099033,2.2232381 16.0247028,2.49485714 L16.0247028,2.49485714 L16.0247028,2.49485714 C15.7513857,2.77828571 15.4186517,2.92 15.0265011,2.92 L15.0265011,2.92 L15.0265011,2.92 C14.6343504,2.92 14.3016165,2.77828571 14.0282993,2.49485714 L14.0282993,2.49485714 L14.0282993,2.49485714 C13.7549822,2.2232381 13.6183236,1.89257143 13.6183236,1.50285714 L13.6183236,1.50285714 L13.6183236,1.50285714 C13.6183236,1.11314286 13.7549822,0.78247619 14.0282993,0.510857143 L14.0282993,0.510857143 L14.0282993,0.510857143 C14.3016165,0.227428571 14.6343504,0.0857142857 15.0265011,0.0857142857 Z M14.1708996,18.8451429 L14.1708996,5.55942857 L15.8821025,5.55942857 L15.8821025,18.8451429 L14.1708996,18.8451429 Z M19.4292837,18.8451429 L19.4292837,13.6902857 L19.4292837,11.5645714 L19.4292837,11.5645714 C19.5718839,9.75771429 19.9521513,8.43504762 20.5700857,7.59657143 L20.5700857,7.59657143 L20.5700857,7.59657143 C21.0810699,6.82895238 21.7524794,6.2207619 22.5843142,5.772 L22.5843142,5.772 L22.5843142,5.772 C23.1309484,5.42952381 23.9033665,5.24647619 24.9015682,5.22285714 L24.9015682,5.22285714 L24.9015682,5.22285714 C25.5551527,5.22285714 26.2146788,5.34095238 26.8801466,5.57714286 L26.8801466,5.57714286 L26.8801466,5.57714286 C27.5456144,5.82514286 28.0625403,6.14990476 28.4309243,6.55142857 L28.4309243,6.55142857 L28.4309243,6.55142857 C28.7993083,6.95295238 29.1676923,7.5552381 29.5360762,8.35828571 L29.5360762,8.35828571 L29.5360762,8.35828571 C29.7380932,7.85047619 30.165894,7.24819048 30.8194784,6.55142857 L30.8194784,6.55142857 L30.8194784,6.55142857 C31.1284457,6.27980952 31.5384214,6.01409524 32.0494056,5.75428571 L32.0494056,5.75428571 L32.0494056,5.75428571 C32.3940228,5.54171429 33.1842659,5.36457143 34.4201347,5.22285714 L34.4201347,5.22285714 L34.4201347,5.22285714 C35.3470363,5.22285714 36.2382878,5.45314286 37.0938893,5.91371429 L37.0938893,5.91371429 L37.0938893,5.91371429 C37.9494908,6.36247619 38.5496002,7.00609524 38.8942175,7.84457143 L38.8942175,7.84457143 L38.8942175,7.84457143 C39.2388347,8.68304762 39.4111433,9.92895238 39.4111433,11.5822857 L39.4111433,11.5822857 L39.4111433,18.8451429 L37.6464653,18.8451429 L37.6464653,11.5822857 L37.6464653,11.5822857 C37.6464653,10.1651429 37.5454568,9.19085714 37.3434398,8.65942857 L37.3434398,8.65942857 L37.3434398,8.65942857 C37.1414227,8.128 36.7908638,7.69695238 36.2917629,7.36628571 L36.2917629,7.36628571 L36.2917629,7.36628571 C35.8045454,7.03561905 35.2103777,6.87028571 34.5092598,6.87028571 L34.5092598,6.87028571 L34.5092598,6.87028571 C33.1902076,6.9647619 32.0672306,7.60247619 31.140329,8.78342857 L31.140329,8.78342857 L31.140329,8.78342857 C30.771945,9.27942857 30.4926862,10.3895238 30.3025526,12.1137143 L30.3025526,12.1137143 L30.3025526,18.8451429 L28.5913496,18.8451429 L28.5913496,12.0251429 L28.5913496,12.0251429 C28.5913496,10.4308571 28.4130993,9.34438095 28.0565987,8.76571429 L28.0565987,8.76571429 L28.0565987,8.76571429 C27.700098,8.18704762 27.2722973,7.72647619 26.7731964,7.384 L26.7731964,7.384 L26.7731964,7.384 C26.2740956,7.04152381 25.6561612,6.87028571 24.9193932,6.87028571 L24.9193932,6.87028571 L24.9193932,6.87028571 C24.1232085,6.87028571 23.4399157,7.07104762 22.8695147,7.47257143 L22.8695147,7.47257143 L22.8695147,7.47257143 C22.2991137,7.88590476 21.8475462,8.49409524 21.5148123,9.29714286 L21.5148123,9.29714286 L21.5148123,9.29714286 C21.1939618,10.1001905 21.0632449,11.4051429 21.1226616,13.212 L21.1226616,13.212 L21.1226616,18.8451429 L19.4292837,18.8451429 Z M44.0813014,7.54342857 L44.0813014,7.54342857 L44.0813014,7.54342857 C43.3564169,8.748 42.9167328,9.93485714 42.7622492,11.104 L42.7622492,11.104 L42.7622492,11.104 C42.7622492,19.512381 42.7622492,23.7106667 42.7622492,23.698882 L42.7622492,23.698882 L44.4734521,23.698882 L44.4734521,16.2765714 L44.4734521,16.2765714 C45.1983367,17.1622857 46.0064048,17.8177143 46.8976563,18.2428571 L46.8976563,18.2428571 L46.8976563,18.2428571 C47.7889079,18.6798095 48.7692846,18.8982857 49.8387864,18.8982857 L49.8387864,18.8982857 L49.8387864,18.8982857 C51.7163564,18.8982857 53.3265508,18.2133333 54.6693698,16.8434286 L54.6693698,16.8434286 L54.6693698,16.8434286 C56.0121888,15.4853333 56.6835983,13.832 56.6835983,11.8834286 L56.6835983,11.8834286 L56.6835983,11.8834286 C56.6835983,9.97028571 56.0121888,8.33466667 54.6693698,6.97657143 L54.6693698,6.97657143 L54.6693698,6.97657143 C53.3146675,5.63028571 51.686648,4.95714286 49.7853113,4.95714286 L49.7853113,4.95714286 L49.7853113,4.95714286 C48.7039261,4.95714286 47.6819577,5.16380952 46.719406,5.57714286 L46.719406,5.57714286 L46.719406,5.57714286 C45.7687377,5.99047619 44.8893695,6.64590476 44.0813014,7.54342857 Z M49.6427111,6.58685714 L49.6427111,6.58685714 L49.6427111,6.58685714 C50.6052628,6.58685714 51.4905726,6.82304762 52.2986407,7.29542857 L52.2986407,7.29542857 L52.2986407,7.29542857 C53.1067088,7.76780952 53.7543516,8.4232381 54.2415691,9.26171429 L54.2415691,9.26171429 L54.2415691,9.26171429 C54.7169032,10.1001905 54.9545703,10.9977143 54.9545703,11.9542857 L54.9545703,11.9542857 L54.9545703,11.9542857 C54.9545703,12.8872381 54.7109615,13.7847619 54.223744,14.6468571 L54.223744,14.6468571 L54.223744,14.6468571 C53.7484099,15.5089524 53.1007671,16.1761905 52.2808157,16.6485714 L52.2808157,16.6485714 L52.2808157,16.6485714 C51.4608642,17.1209524 50.5874377,17.3571429 49.6605361,17.3571429 L49.6605361,17.3571429 L49.6605361,17.3571429 C48.7217512,17.3571429 47.8304996,17.1209524 46.9867815,16.6485714 L46.9867815,16.6485714 L46.9867815,16.6485714 C46.1430634,16.1761905 45.4954206,15.5325714 45.0438531,14.7177143 L45.0438531,14.7177143 L45.0438531,14.7177143 C44.5804023,13.9028571 44.3486769,12.9935238 44.3486769,11.9897143 L44.3486769,11.9897143 L44.3486769,11.9897143 C44.3486769,10.4544762 44.8596611,9.1672381 45.8816296,8.128 L45.8816296,8.128 L45.8816296,8.128 C46.9154814,7.10057143 48.1691752,6.58685714 49.6427111,6.58685714 Z M59.8564538,18.8451429 L59.8564538,0.422285714 L61.6033068,0.422285714 L61.6033068,18.8451429 L59.8564538,18.8451429 Z M69.19677,17.5165714 L63.7244855,5.24057143 L65.5248136,5.24057143 L70.1236716,15.4794286 L74.5799293,5.24057143 L76.4337326,5.24057143 L68.4481187,23.3622857 L66.6299656,23.3622857 L69.19677,17.5165714 Z M85.7027486,18.8097143 L85.7027486,0.847428571 L89.2855798,0.847428571 L89.2855798,0.847428571 C91.2938667,0.847428571 92.6545107,0.930095238 93.3675119,1.09542857 L93.3675119,1.09542857 L93.3675119,1.09542857 C94.4488971,1.34342857 95.3223236,1.86895238 95.9877915,2.672 L95.9877915,2.672 L95.9877915,2.672 C96.6651426,3.47504762 97.0038182,4.46114286 97.0038182,5.63028571 L97.0038182,5.63028571 L97.0038182,5.63028571 C97.0038182,6.61047619 96.7720928,7.46666667 96.308642,8.19885714 L96.308642,8.19885714 L96.308642,8.19885714 C95.8451912,8.94285714 95.1797234,9.50380952 94.3122386,9.88171429 L94.3122386,9.88171429 L94.3122386,9.88171429 C93.4566371,10.2714286 92.7079858,10.4662857 92.0662847,10.4662857 L92.0662847,10.4662857 L97.2533687,18.8097143 L95.0252398,18.8097143 L89.8559808,10.4662857 L87.5030768,10.4662857 L87.5030768,18.8097143 L85.7027486,18.8097143 Z M90.6759323,2.61885714 L87.5030768,2.61885714 L87.5030768,8.71257143 L90.6046321,8.73028571 L90.6046321,8.73028571 C91.8048509,8.73028571 92.6961024,8.61809524 93.2783868,8.39371429 L93.2783868,8.39371429 L93.2783868,8.39371429 C93.8606711,8.16933333 94.3122386,7.80914286 94.6330891,7.31314286 L94.6330891,7.31314286 L94.6330891,7.31314286 C94.9539397,6.80533333 95.114365,6.24438095 95.114365,5.63028571 L95.114365,5.63028571 L95.114365,5.63028571 C95.114365,5.028 94.947998,4.4847619 94.6152641,4.00057143 L94.6152641,4.00057143 L94.6152641,4.00057143 C94.2944135,3.50457143 93.8666128,3.15028571 93.3318619,2.93771429 L93.3318619,2.93771429 L93.3318619,2.93771429 C92.8089943,2.72514286 91.9236844,2.61885714 90.6759323,2.61885714 L90.6759323,2.61885714 Z M111.816419,14.1154286 L111.816419,14.1154286 L113.260246,14.8771429 L113.260246,14.8771429 C112.796796,15.8100952 112.250161,16.56 111.620344,17.1268571 L111.620344,17.1268571 L111.620344,17.1268571 C111.002409,17.6819048 110.301291,18.1070476 109.51699,18.4022857 L109.51699,18.4022857 L109.51699,18.4022857 C108.744572,18.6975238 107.865204,18.8451429 106.878885,18.8451429 L106.878885,18.8451429 L106.878885,18.8451429 C104.704232,18.8451429 102.99897,18.1365714 101.763101,16.7194286 L101.763101,16.7194286 L101.763101,16.7194286 C100.539116,15.3022857 99.9271233,13.7020952 99.9271233,11.9188571 L99.9271233,11.9188571 L99.9271233,11.9188571 C99.9271233,10.2300952 100.449991,8.73028571 101.495726,7.41942857 L101.495726,7.41942857 L101.495726,7.41942857 C102.802895,5.74247619 104.567573,4.904 106.78976,4.904 L106.78976,4.904 L106.78976,4.904 C109.059481,4.904 110.877634,5.76019048 112.24422,7.47257143 L112.24422,7.47257143 L112.24422,7.47257143 C113.206771,8.68895238 113.693989,10.2005714 113.705872,12.0074286 L113.705872,12.0074286 L101.691801,12.0074286 L101.691801,12.0074286 C101.727451,13.5544762 102.226552,14.824 103.189104,15.816 L103.189104,15.816 L103.189104,15.816 C104.139772,16.808 105.322166,17.304 106.736285,17.304 L106.736285,17.304 L106.736285,17.304 C107.413636,17.304 108.073162,17.1859048 108.714864,16.9497143 L108.714864,16.9497143 L108.714864,16.9497143 C109.356565,16.7017143 109.903199,16.3887619 110.354766,16.0108571 L110.354766,16.0108571 L110.354766,16.0108571 C110.806334,15.6211429 111.293551,14.9893333 111.816419,14.1154286 Z M101.887877,10.5371429 L111.816419,10.5371429 L111.816419,10.5371429 C111.590635,9.62780952 111.257901,8.90152381 110.818217,8.35828571 L110.818217,8.35828571 L110.818217,8.35828571 C110.378533,7.81504762 109.80219,7.37219048 109.089189,7.02971429 L109.089189,7.02971429 L109.089189,7.02971429 C108.364305,6.69904762 107.60377,6.53371429 106.807585,6.53371429 L106.807585,6.53371429 L106.807585,6.53371429 C105.500416,6.53371429 104.371498,6.95295238 103.420829,7.79142857 L103.420829,7.79142857 L103.420829,7.79142857 C102.743478,8.40552381 102.232494,9.3207619 101.887877,10.5371429 L101.887877,10.5371429 Z M129.267124,7.54342857 L129.267124,7.54342857 L129.267124,7.54342857 C129.992009,8.748 130.425751,9.93485714 130.568351,11.104 L130.568351,11.104 L130.568351,11.104 C130.568351,19.512381 130.568351,23.7106667 130.568351,23.698882 L130.568351,23.698882 L128.874974,23.698882 L128.874974,16.2765714 L128.874974,16.2765714 C128.150089,17.1622857 127.342021,17.8177143 126.450769,18.2428571 L126.450769,18.2428571 L126.450769,18.2428571 C125.547634,18.6798095 124.567258,18.8982857 123.509639,18.8982857 L123.509639,18.8982857 L123.509639,18.8982857 C121.620186,18.8982857 120.009991,18.2133333 118.679056,16.8434286 L118.679056,16.8434286 L118.679056,16.8434286 C117.336237,15.4853333 116.664827,13.832 116.664827,11.8834286 L116.664827,11.8834286 L116.664827,11.8834286 C116.664827,9.97028571 117.336237,8.33466667 118.679056,6.97657143 L118.679056,6.97657143 L118.679056,6.97657143 C120.033758,5.63028571 121.661778,4.95714286 123.563114,4.95714286 L123.563114,4.95714286 L123.563114,4.95714286 C124.644499,4.95714286 125.666468,5.16380952 126.62902,5.57714286 L126.62902,5.57714286 L126.62902,5.57714286 C127.579688,5.99047619 128.459056,6.64590476 129.267124,7.54342857 Z M123.705715,6.58685714 L123.705715,6.58685714 L123.705715,6.58685714 C122.73128,6.58685714 121.840028,6.82304762 121.03196,7.29542857 L121.03196,7.29542857 L121.03196,7.29542857 C120.223892,7.76780952 119.582191,8.4232381 119.106857,9.26171429 L119.106857,9.26171429 L119.106857,9.26171429 C118.631522,10.1001905 118.393855,10.9977143 118.393855,11.9542857 L118.393855,11.9542857 L118.393855,11.9542857 C118.393855,12.8872381 118.631522,13.7847619 119.106857,14.6468571 L119.106857,14.6468571 L119.106857,14.6468571 C119.594074,15.5089524 120.247659,16.1761905 121.06761,16.6485714 L121.06761,16.6485714 L121.06761,16.6485714 C121.887561,17.1209524 122.755046,17.3571429 123.670064,17.3571429 L123.670064,17.3571429 L123.670064,17.3571429 C124.620733,17.3571429 125.517926,17.1209524 126.361644,16.6485714 L126.361644,16.6485714 L126.361644,16.6485714 C127.205362,16.1761905 127.853005,15.5325714 128.304573,14.7177143 L128.304573,14.7177143 L128.304573,14.7177143 C128.768023,13.9028571 128.999749,12.9935238 128.999749,11.9897143 L128.999749,11.9897143 L128.999749,11.9897143 C128.999749,10.4544762 128.482823,9.1672381 127.448971,8.128 L127.448971,8.128 L127.448971,8.128 C126.427003,7.10057143 125.17925,6.58685714 123.705715,6.58685714 Z M133.794682,11.6354286 L133.794682,5.24057143 L135.52371,5.24057143 L135.52371,11.4405714 L135.52371,11.4405714 C135.52371,12.9521905 135.606894,13.9914286 135.77326,14.5582857 L135.77326,14.5582857 L135.77326,14.5582857 C136.010928,15.3731429 136.474378,16.0167619 137.163613,16.4891429 L137.163613,16.4891429 L137.163613,16.4891429 C137.852847,16.9615238 138.684682,17.1977143 139.659117,17.1977143 L139.659117,17.1977143 L139.659117,17.1977143 C140.609786,17.1977143 141.417854,16.9674286 142.083321,16.5068571 L142.083321,16.5068571 L142.083321,16.5068571 C142.748789,16.0462857 143.21224,15.444 143.473674,14.7 L143.473674,14.7 L143.473674,14.7 C143.651924,14.1921905 143.741049,13.1057143 143.741049,11.4405714 L143.741049,11.4405714 L143.741049,5.24057143 L145.487902,5.24057143 L145.487902,11.7594286 L145.487902,11.7594286 C145.487902,13.6017143 145.274002,14.9834286 144.846201,15.9045714 L144.846201,15.9045714 L144.846201,15.9045714 C144.406517,16.8257143 143.758874,17.5460952 142.903273,18.0657143 L142.903273,18.0657143 L142.903273,18.0657143 C142.035788,18.5853333 140.954403,18.8451429 139.659117,18.8451429 L139.659117,18.8451429 L139.659117,18.8451429 C138.351948,18.8451429 137.25868,18.5853333 136.379312,18.0657143 L136.379312,18.0657143 L136.379312,18.0657143 C135.511827,17.5460952 134.864184,16.8139048 134.436383,15.8691429 L134.436383,15.8691429 L134.436383,15.8691429 C134.008582,14.9361905 133.794682,13.5249524 133.794682,11.6354286 L133.794682,11.6354286 Z M160.532228,14.1154286 L160.532228,14.1154286 L161.976056,14.8771429 L161.976056,14.8771429 C161.512605,15.8100952 160.965971,16.56 160.336153,17.1268571 L160.336153,17.1268571 L160.336153,17.1268571 C159.718219,17.6819048 159.017101,18.1070476 158.232799,18.4022857 L158.232799,18.4022857 L158.232799,18.4022857 C157.460381,18.6975238 156.581013,18.8451429 155.594695,18.8451429 L155.594695,18.8451429 L155.594695,18.8451429 C153.420041,18.8451429 151.71478,18.1365714 150.478911,16.7194286 L150.478911,16.7194286 L150.478911,16.7194286 C149.254926,15.3022857 148.642933,13.7020952 148.642933,11.9188571 L148.642933,11.9188571 L148.642933,11.9188571 C148.642933,10.2300952 149.1658,8.73028571 150.211536,7.41942857 L150.211536,7.41942857 L150.211536,7.41942857 C151.518704,5.74247619 153.283383,4.904 155.50557,4.904 L155.50557,4.904 L155.50557,4.904 C157.77529,4.904 159.593443,5.76019048 160.960029,7.47257143 L160.960029,7.47257143 L160.960029,7.47257143 C161.922581,8.68895238 162.409798,10.2005714 162.421682,12.0074286 L162.421682,12.0074286 L150.407611,12.0074286 L150.407611,12.0074286 C150.443261,13.5544762 150.942362,14.824 151.904913,15.816 L151.904913,15.816 L151.904913,15.816 C152.855582,16.808 154.037975,17.304 155.452095,17.304 L155.452095,17.304 L155.452095,17.304 C156.129446,17.304 156.788972,17.1859048 157.430673,16.9497143 L157.430673,16.9497143 L157.430673,16.9497143 C158.072374,16.7017143 158.619008,16.3887619 159.070576,16.0108571 L159.070576,16.0108571 L159.070576,16.0108571 C159.522143,15.6211429 160.009361,14.9893333 160.532228,14.1154286 Z M150.603686,10.5371429 L160.532228,10.5371429 L160.532228,10.5371429 C160.306445,9.62780952 159.973711,8.90152381 159.534027,8.35828571 L159.534027,8.35828571 L159.534027,8.35828571 C159.094343,7.81504762 158.518,7.37219048 157.804999,7.02971429 L157.804999,7.02971429 L157.804999,7.02971429 C157.080114,6.69904762 156.319579,6.53371429 155.523395,6.53371429 L155.523395,6.53371429 L155.523395,6.53371429 C154.216226,6.53371429 153.087307,6.95295238 152.136639,7.79142857 L152.136639,7.79142857 L152.136639,7.79142857 C151.459288,8.40552381 150.948303,9.3207619 150.603686,10.5371429 L150.603686,10.5371429 Z M172.332399,6.69314286 L172.332399,6.69314286 L171.245072,7.82685714 L171.245072,7.82685714 C170.31817,6.94114286 169.415035,6.49828571 168.535667,6.49828571 L168.535667,6.49828571 L168.535667,6.49828571 C167.97715,6.49828571 167.501815,6.68133333 167.109665,7.04742857 L167.109665,7.04742857 L167.109665,7.04742857 C166.705631,7.41352381 166.503614,7.84457143 166.503614,8.34057143 L166.503614,8.34057143 L166.503614,8.34057143 C166.503614,8.75390476 166.669981,9.15542857 167.002715,9.54514286 L167.002715,9.54514286 L167.002715,9.54514286 C167.335449,9.95847619 168.024683,10.4308571 169.070418,10.9622857 L169.070418,10.9622857 L169.070418,10.9622857 C170.35382,11.623619 171.221305,12.2613333 171.672873,12.8754286 L171.672873,12.8754286 L171.672873,12.8754286 C172.12444,13.4895238 172.350224,14.1862857 172.350224,14.9657143 L172.350224,14.9657143 L172.350224,14.9657143 C172.350224,16.040381 171.964015,16.955619 171.191597,17.7114286 L171.191597,17.7114286 L171.191597,17.7114286 C170.431062,18.4672381 169.468511,18.8451429 168.303942,18.8451429 L168.303942,18.8451429 L168.303942,18.8451429 C167.543407,18.8451429 166.806639,18.6857143 166.093638,18.3668571 L166.093638,18.3668571 L166.093638,18.3668571 C165.39252,18.0361905 164.816178,17.575619 164.36461,16.9851429 L164.36461,16.9851429 L165.451937,15.7628571 L165.451937,15.7628571 C166.331305,16.7430476 167.258207,17.2331429 168.232642,17.2331429 L168.232642,17.2331429 L168.232642,17.2331429 C168.921876,17.2331429 169.504161,17.0146667 169.979495,16.5777143 L169.979495,16.5777143 L169.979495,16.5777143 C170.466712,16.1407619 170.710321,15.6270476 170.710321,15.0365714 L170.710321,15.0365714 L170.710321,15.0365714 C170.710321,14.5405714 170.549896,14.103619 170.229045,13.7257143 L170.229045,13.7257143 L170.229045,13.7257143 C169.920078,13.3478095 169.201135,12.8695238 168.072216,12.2908571 L168.072216,12.2908571 L168.072216,12.2908571 C166.871998,11.6885714 166.052046,11.080381 165.612362,10.4662857 L165.612362,10.4662857 L165.612362,10.4662857 C165.172678,9.87580952 164.952836,9.19085714 164.952836,8.41142857 L164.952836,8.41142857 L164.952836,8.41142857 C164.952836,7.40761905 165.303395,6.56914286 166.004513,5.896 L166.004513,5.896 L166.004513,5.896 C166.693747,5.23466667 167.567174,4.904 168.624792,4.904 L168.624792,4.904 L168.624792,4.904 C169.848778,4.904 171.084647,5.50038095 172.332399,6.69314286 Z M180.175412,16.9674286 L180.175412,16.9674286 L180.175412,16.9674286 C179.331694,17.4161905 178.505801,17.451619 177.697733,17.0737143 L177.697733,17.0737143 L177.697733,17.0737143 C176.699531,16.3179048 176.230139,15.2491429 176.289556,13.8674286 L176.289556,13.8674286 L176.289556,8.23428571 L179.444586,8.23428571 L179.444586,6.78171429 L176.271731,6.78171429 L176.271731,0.351428571 L174.542703,0.351428571 L174.542703,14.1508571 L174.542703,14.1508571 C174.518936,15.1192381 174.738778,16.0049524 175.202229,16.808 L175.202229,16.808 L175.202229,16.808 C175.974647,18.0952381 177.01444,18.7742857 178.321609,18.8451429 L178.321609,18.8451429 L178.321609,18.8451429 C179.022727,18.8687619 179.818912,18.7152381 180.710163,18.3845714 L180.710163,18.3845714 L180.710163,18.3845714 C180.579447,18.0420952 180.401196,17.5697143 180.175412,16.9674286 Z" id="Shape"></path>
                </g>
                <g id="3aa38e37-b0bc-4b13-9e9b-29a4b5e02fb5" fill="url(#linearGradient-1)">
                    <path d="M35.8007174,1.16686957 C33.8429348,-0.738782609 29.3164674,0.944608696 24.1529565,4.39943478 C22.3576043,3.68967002 20.4378933,3.32516736 18.5,3.32608696 C10.1838478,3.32608696 3.41847826,9.9086087 3.41847826,18 C3.41847826,19.9443913 3.8126087,21.8003478 4.5216413,23.5001739 C0.97125,28.5237391 -0.758902174,32.9274783 1.19928261,34.8331304 C1.75991304,35.379 2.53128261,35.6302174 3.46754348,35.6302174 C5.8013587,35.6302174 9.16192391,34.0653913 12.8466413,31.6005652 C14.6421334,32.310332 16.5619763,32.6748337 18.5,32.673913 C26.8161522,32.673913 33.5815217,26.0913913 33.5815217,18 C33.5815217,16.0556087 33.1873913,14.1996522 32.4783587,12.4998261 C36.0283478,7.47626087 37.7589022,3.07252174 35.8007174,1.16686957 Z M23.9683587,16.2997826 C23.706873,16.2488688 23.4353099,16.3011125 23.2134152,16.4450197 C22.9915206,16.5889269 22.8374726,16.8127083 22.785163,17.0671304 L21.7797283,21.9584348 L21.7797283,21.9603913 C21.7660175,22.0322333 21.7604877,22.1053269 21.7632391,22.1783478 C21.7640435,22.2006522 21.767663,22.2217826 21.7696739,22.244087 C21.7768409,22.3193622 21.793038,22.3935626 21.8179348,22.4651739 C21.8352283,22.5148696 21.85775,22.5626087 21.8834891,22.6091739 C21.8939457,22.6279565 21.9023913,22.6471304 21.9136522,22.6651304 C21.9534674,22.7273478 21.9993152,22.7872174 22.0548152,22.8416087 C22.1026739,22.8881739 22.1549565,22.9292609 22.2100543,22.9652609 C22.2490652,22.9906957 22.2908913,23.009087 22.3323152,23.0286522 C22.3496087,23.0368696 22.3656957,23.0478261 22.3837935,23.0548696 C22.4300435,23.0732609 22.4779022,23.085 22.5257609,23.0967391 C22.5410435,23.1002609 22.5555217,23.106913 22.5712065,23.1096522 C22.6995712,23.1346142 22.831744,23.1346142 22.9601087,23.1096522 L22.9625217,23.1092609 L27.9896957,22.131 C28.3419343,22.0624283 28.6298175,21.8162272 28.7449024,21.4851383 C28.8599873,21.1540494 28.7847898,20.7883729 28.5476361,20.5258557 C28.3104824,20.2633384 27.9474017,20.1438631 27.595163,20.2124348 L25.721837,20.5771304 C27.6663478,18.5462609 29.4769348,16.4613913 31.0438043,14.4348261 C31.3930685,15.5927319 31.5706522,16.7932578 31.5706522,18 C31.5706522,25.0121739 25.7069565,30.7173913 18.5,30.7173913 C13.4044565,30.7173913 8.98376087,27.864 6.82891304,23.7146087 C8.35395652,21.6473478 10.2687065,19.3562609 12.5743696,16.9376087 L12.2429783,18.549 C12.1725018,18.8917187 12.2952959,19.2449863 12.5651053,19.4757305 C12.8349147,19.7064747 13.2107488,19.7796398 13.5510347,19.6676653 C13.8913205,19.5556908 14.1443605,19.2755882 14.214837,18.9328696 L15.2202717,14.0415652 L15.2202717,14.0396087 C15.23475,13.9676087 15.2387717,13.8944348 15.2367609,13.8216522 C15.2359565,13.7993478 15.232337,13.7782174 15.2303261,13.755913 C15.2231591,13.6806378 15.206962,13.6064374 15.1820652,13.5348261 C15.1643787,13.4851316 15.1424508,13.4369637 15.1165109,13.3908261 C15.1060543,13.3720435 15.0976087,13.3528696 15.0863478,13.3348696 C15.0462779,13.2710563 14.998923,13.2118544 14.9451848,13.1583913 C14.8902891,13.1057706 14.8292843,13.0595465 14.7634022,13.0206522 C14.7457065,13.010087 14.7268043,13.0018696 14.7083043,12.9924783 C14.6393098,12.9560707 14.5661458,12.9277011 14.4903261,12.9079565 C14.4364839,12.8944326 14.3816116,12.8851418 14.3262391,12.8801739 C14.3061304,12.8782174 14.2864239,12.875087 14.265913,12.8746957 C14.1900746,12.8716798 14.1141275,12.8769298 14.0394891,12.8903478 L14.0374783,12.8903478 L9.01030435,13.8686087 C8.65806571,13.9371804 8.37018253,14.1833815 8.25509762,14.5144704 C8.1400127,14.8455593 8.21521019,15.2112358 8.45236392,15.473753 C8.68951765,15.7362702 9.05259832,15.8557456 9.40483696,15.7871739 L11.278163,15.4224783 C9.33365217,17.4533478 7.52306522,19.5382174 5.95619565,21.5647826 C5.60690467,20.4070163 5.42934783,19.2066157 5.42934783,18 C5.42934783,10.9878261 11.2930435,5.2826087 18.5,5.2826087 C23.5955435,5.2826087 28.0162391,8.136 30.171087,12.2853913 C28.6460435,14.3526522 26.7312935,16.6437391 24.4256304,19.0623913 L24.7570217,17.451 C24.8093498,17.1965815 24.7556549,16.9323579 24.6077503,16.7164604 C24.4598457,16.5005629 24.2298481,16.3506784 23.9683587,16.2997826 Z M2.62136957,33.4494783 C1.79490217,32.6453478 2.77017391,29.6733913 5.55603261,25.5204783 C6.83952826,27.6027615 8.63049508,29.3453239 10.7706196,30.5941304 C6.50275,33.305087 3.4486413,34.2536087 2.62136957,33.4494783 L2.62136957,33.4494783 Z M31.4439674,10.4795217 C30.1603881,8.39753774 28.3695995,6.65514879 26.2297826,5.40626087 C30.4980543,2.69569565 33.5517609,1.74717391 34.3786304,2.55052174 C35.2055,3.35465217 34.2302283,6.32621739 31.4439674,10.4795217 L31.4439674,10.4795217 Z" id="Shape"></path>
                </g>
            </g>
        </g>
    </g>
</svg>